<?xml version="1.0" encoding="UTF-8" ?>
<!DOCTYPE svg PUBLIC "-//W3C//DTD SVG 1.1//EN" "http://www.w3.org/Graphics/SVG/1.1/DTD/svg11.dtd">
<svg width="200pt" height="200pt" viewBox="0 0 200 200" version="1.1" xmlns="http://www.w3.org/2000/svg">
	<rect fill="#fae42e" x="0" y="0" width="200" height="200"/>
	<path fill="#030203" d=" M 95.74 47.80 C 100.10 40.55 108.75 37.18 116.92 37.05 C 125.94 37.04 135.25 38.34 143.13 43.02 C 141.49 45.93 139.88 48.86 138.33 51.82 C 130.18 47.59 120.43 45.02 111.36 47.47 C 104.55 49.33 100.85 57.73 103.98 64.01 C 107.29 68.84 113.49 69.90 118.79 71.21 C 126.42 73.09 134.90 74.50 140.62 80.38 C 145.88 85.59 146.47 93.82 144.80 100.66 C 142.74 108.41 135.50 113.59 127.97 115.30 C 114.79 118.27 100.29 115.37 89.64 106.94 C 91.59 104.46 93.56 101.98 95.51 99.49 C 102.94 104.61 111.95 107.83 121.07 106.96 C 126.53 106.70 132.51 103.98 134.47 98.53 C 135.44 94.61 135.48 89.62 132.14 86.77 C 127.85 82.39 121.42 81.81 115.77 80.46 C 108.85 78.99 101.34 77.03 96.70 71.27 C 91.28 64.77 91.67 54.88 95.74 47.80 Z"/>
	<path fill="#030203" d=" M 78.04 38.63 C 81.47 38.66 84.90 38.67 88.33 38.66 C 88.36 56.12 88.32 73.58 88.34 91.04 C 88.44 96.06 87.06 101.10 84.30 105.29 C 80.33 111.63 73.24 115.04 66.12 116.52 C 65.25 113.38 64.38 110.25 63.58 107.10 C 67.81 105.64 72.81 104.38 75.22 100.23 C 78.23 95.75 78.03 90.16 78.04 85.00 C 78.02 69.54 78.04 54.09 78.04 38.63 Z"/>
	<text x="100" y="140" font-size="20" text-anchor="middle" alignment-baseline="middle" fill="#030203" style="font-family: Ubuntu">Russian</text>
	<text x="100" y="160" font-size="20" text-anchor="middle" alignment-baseline="middle" fill="#030203" style="font-family: Ubuntu">community</text>
</svg>
